<svg width="26" height="41" viewBox="0 0 26 41" fill="none" xmlns="http://www.w3.org/2000/svg">
<path d="M21.7451 0.5C23.7764 0.5 25.4951 2.21875 25.4951 4.25V36.75C25.4951 38.8594 23.7764 40.5 21.7451 40.5H4.24512C2.13574 40.5 0.495117 38.8594 0.495117 36.75V4.25C0.495117 2.21875 2.13574 0.5 4.24512 0.5H21.7451ZM12.9951 38C14.3232 38 15.4951 36.9062 15.4951 35.5C15.4951 34.1719 14.3232 33 12.9951 33C11.5889 33 10.4951 34.1719 10.4951 35.5C10.4951 36.9062 11.5889 38 12.9951 38ZM21.7451 29.5625V5.1875C21.7451 4.71875 21.2764 4.25 20.8076 4.25H5.18262C4.63574 4.25 4.24512 4.71875 4.24512 5.1875V29.5625C4.24512 30.1094 4.63574 30.5 5.18262 30.5H20.8076C21.2764 30.5 21.7451 30.1094 21.7451 29.5625Z" fill="white"/>
</svg>
