<svg width="12" height="12" viewBox="0 0 12 12" fill="none" xmlns="http://www.w3.org/2000/svg">
<path d="M11.6247 9.50192C11.6247 9.63985 11.5992 9.81992 11.5481 10.0421C11.497 10.2644 11.4434 10.4393 11.3872 10.567C11.2799 10.8225 10.9683 11.0932 10.4523 11.3793C9.9721 11.6398 9.49701 11.7701 9.02702 11.7701C8.88909 11.7701 8.75499 11.7612 8.62472 11.7433C8.49445 11.7254 8.34758 11.6935 8.18411 11.6475C8.02063 11.6015 7.89931 11.5645 7.82012 11.5364C7.74094 11.5083 7.59918 11.4559 7.39484 11.3793C7.19049 11.3027 7.06533 11.2567 7.01936 11.2414C6.51872 11.0626 6.07172 10.8506 5.67836 10.6054C5.02447 10.2018 4.34886 9.65134 3.65154 8.95402C2.95422 8.25671 2.40378 7.5811 2.0002 6.9272C1.75499 6.53384 1.54298 6.08685 1.36418 5.58621C1.34886 5.54023 1.30288 5.41507 1.22625 5.21073C1.14963 5.00639 1.09726 4.86462 1.06917 4.78544C1.04107 4.70626 1.00403 4.58493 0.958055 4.42146C0.912078 4.25798 0.880149 4.11111 0.862269 3.98084C0.844389 3.85058 0.835449 3.71648 0.835449 3.57854C0.835449 3.10856 0.965717 2.63346 1.22625 2.15326C1.51233 1.63729 1.78309 1.32567 2.03851 1.21839C2.16623 1.1622 2.3412 1.10856 2.56342 1.05747C2.78564 1.00639 2.96572 0.980844 3.10365 0.980844C3.17517 0.980844 3.22881 0.988506 3.26457 1.00383C3.35652 1.03448 3.4919 1.22861 3.6707 1.58621C3.72689 1.68327 3.80352 1.8212 3.90058 2C3.99765 2.1788 4.08705 2.341 4.16878 2.48659C4.25052 2.63218 4.3297 2.76884 4.40633 2.89655C4.42166 2.91699 4.46636 2.98084 4.54043 3.08812C4.6145 3.1954 4.66942 3.28608 4.70518 3.36015C4.74094 3.43423 4.75882 3.50702 4.75882 3.57854C4.75882 3.68072 4.68602 3.80843 4.54043 3.96169C4.39484 4.11494 4.23647 4.25543 4.06533 4.38314C3.8942 4.51086 3.73583 4.64623 3.59024 4.78927C3.44464 4.93231 3.37185 5.04981 3.37185 5.14176C3.37185 5.18774 3.38462 5.24521 3.41016 5.31418C3.4357 5.38314 3.45742 5.4355 3.4753 5.47126C3.49318 5.50702 3.52894 5.56833 3.58258 5.65517C3.63622 5.74202 3.66559 5.79055 3.6707 5.80077C4.05895 6.50064 4.50339 7.10089 5.00403 7.60153C5.50467 8.10217 6.10493 8.54662 6.8048 8.93487C6.81501 8.93997 6.86355 8.96935 6.95039 9.02299C7.03724 9.07663 7.09854 9.11239 7.1343 9.13027C7.17006 9.14815 7.22242 9.16986 7.29139 9.1954C7.36035 9.22095 7.41782 9.23372 7.4638 9.23372C7.55576 9.23372 7.67325 9.16092 7.81629 9.01533C7.95933 8.86973 8.09471 8.71137 8.22242 8.54023C8.35014 8.36909 8.49062 8.21073 8.64388 8.06513C8.79713 7.91954 8.92485 7.84674 9.02702 7.84674C9.09854 7.84674 9.17134 7.86462 9.24541 7.90038C9.31948 7.93614 9.41016 7.99106 9.51744 8.06513C9.62472 8.13921 9.68858 8.18391 9.70901 8.19923C9.83673 8.27586 9.97338 8.35504 10.119 8.43678C10.2646 8.51852 10.4268 8.60792 10.6056 8.70498C10.7844 8.80204 10.9223 8.87867 11.0194 8.93487C11.377 9.11367 11.5711 9.24904 11.6017 9.341C11.6171 9.37676 11.6247 9.4304 11.6247 9.50192Z" fill="white"/>
</svg>
