<?xml version="1.0" standalone="no"?>
<!DOCTYPE svg PUBLIC "-//W3C//DTD SVG 20010904//EN"
 "http://www.w3.org/TR/2001/REC-SVG-20010904/DTD/svg10.dtd">
<svg version="1.0" xmlns="http://www.w3.org/2000/svg"
 width="920.000000pt" height="920.000000pt" viewBox="0 0 920.000000 920.000000"
 preserveAspectRatio="xMidYMid meet">
<metadata>
Created by potrace 1.10, written by Peter Selinger 2001-2011
</metadata>
<g transform="translate(0.000000,920.000000) scale(0.050000,-0.050000)"
fill="#000000" stroke="none">
<path d="M1547 17843 c-335 -117 -468 -227 -406 -338 47 -85 125 -82 301 13
1143 617 2289 -870 1391 -1804 -924 -961 -2463 135 -1863 1326 102 202 88 305
-41 305 -219 0 -411 -740 -307 -1181 102 -433 466 -828 921 -1001 49 -19 54
-31 60 -153 8 -143 -1 -160 -111 -212 -114 -54 -137 -112 -138 -341 -1 -252
54 -375 169 -377 75 -1 79 -36 78 -758 -3 -992 38 -1168 348 -1499 48 -51 150
-188 226 -304 1177 -1787 3601 -2102 5237 -682 1234 1070 1492 3099 571 4483
-960 1444 -2816 1969 -4381 1238 -211 -98 -202 -100 -202 37 -3 868 -1005
1543 -1853 1248z m3365 -1218 c12 -8 29 -51 37 -95 36 -198 251 -206 251 -9 0
94 32 120 131 107 266 -36 381 -57 559 -103 440 -113 850 -322 1215 -620 150
-122 157 -139 85 -201 -138 -121 25 -297 170 -184 84 66 110 50 267 -159 384
-510 653 -1207 653 -1695 l0 -104 -75 -13 c-230 -41 -234 -229 -5 -268 l70
-12 -3 -170 c-10 -514 -297 -1212 -711 -1729 -99 -125 -109 -127 -208 -60
-162 110 -285 -36 -158 -187 62 -73 55 -91 -80 -199 -483 -387 -1056 -633
-1653 -707 -219 -28 -257 -15 -257 84 0 119 -71 177 -171 139 -53 -21 -55 -24
-90 -158 l-22 -87 -143 13 c-623 58 -1265 325 -1750 730 l-126 105 61 69 c141
160 11 316 -162 196 -94 -65 -113 -58 -218 81 -98 129 -96 140 23 112 49 -11
286 -20 529 -21 l441 0 126 -82 c1849 -1202 4147 305 3771 2472 -297 1703
-2294 2546 -3739 1579 -249 -166 -298 -242 -217 -332 55 -61 128 -44 277 65
1177 857 2851 341 3341 -1031 589 -1647 -923 -3298 -2611 -2852 -174 46 -430
147 -430 170 0 9 288 17 640 19 715 4 813 18 1120 160 1357 627 1557 2415 370
3317 -626 476 -1559 498 -2213 53 -864 -587 -1112 -1762 -555 -2632 84 -132
81 -137 -78 -129 -152 7 -180 30 -265 213 -336 725 -277 1488 169 2175 133
205 145 252 78 314 -81 76 -141 48 -263 -124 -498 -705 -593 -1648 -241 -2414
78 -168 72 -180 -69 -167 -377 37 -403 104 -403 1062 l0 725 88 38 c137 59
152 94 152 363 0 263 -19 309 -157 374 -70 33 -73 38 -79 151 -8 144 1 155
205 257 352 177 627 478 729 798 73 227 857 549 1472 604 44 4 85 9 90 10 6 2
20 -3 32 -11z m-2806 -1544 c9 0 13 -53 10 -116 l-6 -115 -108 -6 c-125 -7
-141 8 -142 127 0 117 24 128 246 110z m3263 -32 c26 -27 31 -104 31 -536 0
-700 -48 -668 652 -442 257 83 477 146 487 139 55 -34 187 -431 177 -533 l-6
-67 -482 -160 c-686 -228 -664 -153 -225 -763 323 -450 314 -415 142 -553
-302 -243 -352 -256 -450 -119 -666 927 -592 886 -882 485 l-166 -230 -369
-10 c-459 -12 -451 -18 -291 200 640 868 649 762 -87 999 -247 79 -458 152
-467 161 -38 36 110 525 177 580 22 18 127 -9 496 -128 697 -226 650 -257 646
428 -4 541 -4 536 56 560 81 33 525 24 561 -11z m-874 -439 c3 -196 -1 -364
-11 -374 -13 -13 -676 190 -701 215 -54 52 602 551 686 523 13 -5 23 -143 26
-364z m1345 292 c231 -121 572 -420 517 -454 -68 -42 -668 -225 -684 -209 -23
23 -30 659 -8 705 17 38 29 35 175 -42z m-3464 -454 c7 -152 20 -147 -392
-148 -361 0 -384 8 -384 129 0 160 -21 153 397 146 l373 -5 6 -122z m-256
-1178 l10 -781 66 -133 c74 -151 145 -219 304 -294 l110 -52 1132 -10 c1241
-11 1198 -6 1198 -131 0 -133 33 -129 -1162 -129 -1323 0 -1392 11 -1649 269
-242 242 -269 369 -269 1282 0 826 -10 773 137 765 l113 -6 10 -780z m1679
-47 c365 -117 355 -101 208 -300 -65 -86 -161 -219 -215 -294 l-97 -137 -48
59 c-152 190 -307 819 -192 782 19 -6 174 -55 344 -110z m2941 42 c0 -173
-143 -601 -245 -733 -33 -44 -20 -59 -303 328 -200 273 -215 242 184 373 385
126 364 124 364 32z m-1440 -1139 c249 -348 245 -327 72 -359 -168 -31 -172
-29 -172 95 0 152 -127 358 -221 358 -32 0 -22 37 34 120 69 105 47 120 287
-214z m-1571 121 c18 -48 -17 -76 -62 -50 -20 12 -26 22 -12 22 14 1 24 8 23
16 -9 53 31 62 51 12z"/>
<path d="M4955 13772 c-276 -99 -347 -445 -132 -646 156 -145 450 -106 569 74
201 304 -96 693 -437 572z m186 -252 c67 -36 84 -92 49 -160 -62 -119 -230
-87 -230 44 0 110 87 166 181 116z"/>
<path d="M1762 17368 c-690 -185 -892 -1068 -353 -1543 731 -643 1815 211
1381 1089 -182 368 -624 563 -1028 454z m503 -285 c271 -133 416 -421 356
-707 -32 -154 -64 -195 -125 -157 -25 16 -82 46 -126 67 -44 21 -84 42 -88 46
-5 4 43 61 105 126 120 126 137 179 82 258 -59 84 -118 58 -328 -145 -107
-104 -216 -193 -243 -199 -208 -43 -268 -63 -343 -114 -113 -76 -126 -74 -168
37 -194 509 386 1029 878 788z m-10 -1023 c165 -71 110 -139 -147 -182 -224
-38 -543 56 -463 136 108 108 414 131 610 46z"/>
</g>
</svg>
