<svg width="18" height="18" viewBox="0 0 18 18" fill="none" xmlns="http://www.w3.org/2000/svg">
<path d="M3.77808 9.74316C4.65308 10.6182 5.71558 11.0557 6.96558 11.0557C8.21558 11.0557 9.27808 10.6182 10.1531 9.74316C11.0281 8.86816 11.4656 7.80566 11.4656 6.55566C11.4656 5.30566 11.0281 4.24316 10.1531 3.36816C9.27808 2.49316 8.21558 2.05566 6.96558 2.05566C5.71558 2.05566 4.65308 2.49316 3.77808 3.36816C2.90308 4.24316 2.46558 5.30566 2.46558 6.55566C2.46558 7.80566 2.90308 8.86816 3.77808 9.74316ZM12.9656 11.0557L17.9343 16.0244L16.4343 17.5244L11.4656 12.5557V11.7588L11.1843 11.4775C9.99683 12.5088 8.59058 13.0244 6.96558 13.0244C5.15308 13.0244 3.6062 12.3994 2.32495 11.1494C1.07495 9.89941 0.449951 8.36816 0.449951 6.55566C0.449951 4.74316 1.07495 3.21191 2.32495 1.96191C3.6062 0.680664 5.15308 0.0400391 6.96558 0.0400391C8.77808 0.0400391 10.3093 0.680664 11.5593 1.96191C12.8093 3.21191 13.4343 4.74316 13.4343 6.55566C13.4343 7.21191 13.2781 7.96191 12.9656 8.80566C12.6531 9.61816 12.2937 10.2744 11.8875 10.7744L12.1687 11.0557H12.9656Z" fill="white"/>
</svg>
