<svg width="14" height="14" viewBox="0 0 14 14" fill="none" xmlns="http://www.w3.org/2000/svg">
<path d="M1.71522 12.751H12.5045V4.90421H1.71522V12.751ZM4.65775 3.43295V1.22605C4.65775 1.15453 4.63476 1.09579 4.58878 1.04981C4.5428 1.00383 4.48406 0.980843 4.41254 0.980843H3.92211C3.85059 0.980843 3.79185 1.00383 3.74587 1.04981C3.69989 1.09579 3.6769 1.15453 3.6769 1.22605V3.43295C3.6769 3.50447 3.69989 3.56322 3.74587 3.60919C3.79185 3.65517 3.85059 3.67816 3.92211 3.67816H4.41254C4.48406 3.67816 4.5428 3.65517 4.58878 3.60919C4.63476 3.56322 4.65775 3.50447 4.65775 3.43295ZM10.5428 3.43295V1.22605C10.5428 1.15453 10.5198 1.09579 10.4738 1.04981C10.4279 1.00383 10.3691 0.980843 10.2976 0.980843H9.80717C9.73565 0.980843 9.6769 1.00383 9.63093 1.04981C9.58495 1.09579 9.56196 1.15453 9.56196 1.22605V3.43295C9.56196 3.50447 9.58495 3.56322 9.63093 3.60919C9.6769 3.65517 9.73565 3.67816 9.80717 3.67816H10.2976C10.3691 3.67816 10.4279 3.65517 10.4738 3.60919C10.5198 3.56322 10.5428 3.50447 10.5428 3.43295ZM13.4853 2.94253V12.751C13.4853 13.0166 13.3883 13.2465 13.1941 13.4406C13 13.6347 12.7701 13.7318 12.5045 13.7318H1.71522C1.44957 13.7318 1.21969 13.6347 1.02556 13.4406C0.831438 13.2465 0.734375 13.0166 0.734375 12.751V2.94253C0.734375 2.67688 0.831438 2.447 1.02556 2.25287C1.21969 2.05875 1.44957 1.96169 1.71522 1.96169H2.69606V1.22605C2.69606 0.888889 2.81611 0.600255 3.05621 0.360153C3.29632 0.120051 3.58495 0 3.92211 0H4.41254C4.7497 0 5.03833 0.120051 5.27844 0.360153C5.51854 0.600255 5.63859 0.888889 5.63859 1.22605V1.96169H8.58112V1.22605C8.58112 0.888889 8.70117 0.600255 8.94127 0.360153C9.18137 0.120051 9.47001 0 9.80717 0H10.2976C10.6348 0 10.9234 0.120051 11.1635 0.360153C11.4036 0.600255 11.5236 0.888889 11.5236 1.22605V1.96169H12.5045C12.7701 1.96169 13 2.05875 13.1941 2.25287C13.3883 2.447 13.4853 2.67688 13.4853 2.94253Z" fill="white"/>
</svg>
