<svg width="135" height="135" viewBox="0 0 135 135" fill="none" xmlns="http://www.w3.org/2000/svg">
<path d="M63.1963 29.5156C54.7999 29.5156 46.592 32.0055 39.6106 36.6703C32.6292 41.3351 27.1879 47.9653 23.9747 55.7226C20.7616 63.4799 19.9208 72.0158 21.5589 80.2509C23.197 88.486 27.2402 96.0505 33.1774 101.988C39.1146 107.925 46.679 111.968 54.9141 113.606C63.1492 115.244 71.6851 114.403 79.4424 111.19C87.1997 107.977 93.83 102.536 98.4948 95.5544C103.16 88.5731 105.649 80.3652 105.649 71.9688C105.639 60.7126 101.163 49.9203 93.2041 41.961C85.2448 34.0016 74.4525 29.5257 63.1963 29.5156ZM63.1963 109.953C55.6837 109.953 48.3398 107.725 42.0933 103.552C35.8468 99.3778 30.9783 93.4455 28.1033 86.5047C25.2284 79.564 24.4762 71.9266 25.9418 64.5584C27.4074 57.1901 31.0251 50.422 36.3373 45.1097C41.6495 39.7975 48.4177 36.1799 55.7859 34.7142C63.1542 33.2486 70.7916 34.0008 77.7323 36.8758C84.673 39.7507 90.6054 44.6193 94.7792 50.8658C98.9529 57.1123 101.181 64.4562 101.181 71.9688C101.166 82.0385 97.16 91.6917 90.0396 98.8121C82.9193 105.932 73.266 109.939 63.1963 109.953Z" fill="white"/>
<path d="M63.1963 38.4531C56.5675 38.4531 50.0876 40.4188 44.576 44.1015C39.0644 47.7843 34.7686 53.0187 32.2319 59.1429C29.6952 65.2671 29.0315 72.0059 30.3247 78.5073C31.6179 85.0087 34.8099 90.9806 39.4972 95.6679C44.1844 100.355 50.1563 103.547 56.6577 104.84C63.1591 106.134 69.898 105.47 76.0222 102.933C82.1464 100.396 87.3808 96.1007 91.0635 90.589C94.7463 85.0774 96.7119 78.5975 96.7119 71.9688C96.7013 63.0831 93.1668 54.5645 86.8837 48.2814C80.6006 41.9983 72.0819 38.4638 63.1963 38.4531ZM89.048 58.7859C89.7505 60.1509 90.3408 61.5706 90.8132 63.0312H84.7804L89.048 58.7859ZM72.1338 44.3519C73.5944 44.8242 75.0142 45.4146 76.3791 46.117L72.1338 50.3847V44.3519ZM54.2588 44.3519V50.3847L50.0135 46.117C51.3784 45.4146 52.7982 44.8242 54.2588 44.3519ZM37.3446 58.7859L41.6122 63.0312H35.5794C36.0518 61.5706 36.6421 60.1509 37.3446 58.7859ZM37.3446 85.1516C36.6421 83.7866 36.0518 82.3669 35.5794 80.9062H41.6122L37.3446 85.1516ZM54.2588 99.5856C52.7868 99.1154 51.3588 98.5173 49.9911 97.7981L54.2588 93.5305V99.5856ZM72.1338 99.5856V93.5305L76.4015 97.7981C75.0338 98.5173 73.6058 99.1154 72.1338 99.5856ZM89.048 85.1516L84.7804 80.9062H90.8132C90.3408 82.3669 89.7505 83.7866 89.048 85.1516ZM79.3732 76.4375C78.9312 76.4358 78.4989 76.567 78.1323 76.814C77.7658 77.061 77.4819 77.4125 77.3176 77.8228C77.1465 78.2297 77.0997 78.6782 77.1832 79.1116C77.2667 79.5451 77.4767 79.9441 77.7868 80.2583L86.6349 89.0617C84.8635 91.4809 82.7308 93.6136 80.3116 95.385L71.4858 86.5592C71.1716 86.2492 70.7726 86.0392 70.3392 85.9557C69.9057 85.8721 69.4573 85.9189 69.0504 86.09C68.64 86.2544 68.2886 86.5382 68.0416 86.9048C67.7945 87.2713 67.6634 87.7036 67.6651 88.1456V100.636C64.7074 101.142 61.6852 101.142 58.7276 100.636V88.1456C58.7292 87.7036 58.5981 87.2713 58.351 86.9048C58.104 86.5382 57.7526 86.2544 57.3422 86.09C56.9353 85.9189 56.4869 85.8721 56.0534 85.9557C55.62 86.0392 55.221 86.2492 54.9068 86.5592L46.081 95.385C43.6618 93.6136 41.5292 91.4809 39.7577 89.0617L48.6058 80.2583C48.9159 79.9441 49.1259 79.5451 49.2094 79.1116C49.2929 78.6782 49.2462 78.2297 49.0751 77.8228C48.9107 77.4125 48.6268 77.061 48.2603 76.814C47.8938 76.567 47.4614 76.4358 47.0194 76.4375H34.5293C34.0228 73.4799 34.0228 70.4576 34.5293 67.5H47.0194C47.4614 67.5017 47.8938 67.3705 48.2603 67.1235C48.6268 66.8765 48.9107 66.525 49.0751 66.1147C49.2462 65.7078 49.2929 65.2593 49.2094 64.8259C49.1259 64.3924 48.9159 63.9934 48.6058 63.6792L39.7577 54.8758C41.5365 52.449 43.6766 50.309 46.1033 48.5302L54.9068 57.3783C55.3294 57.7951 55.8996 58.028 56.4932 58.0263C57.0831 58.0176 57.6464 57.7794 58.0635 57.3622C58.4807 56.9451 58.7189 56.3818 58.7276 55.7919V43.3017C61.6852 42.7953 64.7074 42.7953 67.6651 43.3017V55.7919C67.6737 56.3818 67.9119 56.9451 68.3291 57.3622C68.7462 57.7794 69.3095 58.0176 69.8994 58.0263C70.493 58.028 71.0632 57.7951 71.4858 57.3783L80.2893 48.5302C82.7161 50.309 84.8561 52.449 86.6349 54.8758L77.7868 63.6792C77.4767 63.9934 77.2667 64.3924 77.1832 64.8259C77.0997 65.2593 77.1465 65.7078 77.3176 66.1147C77.4819 66.525 77.7658 66.8765 78.1323 67.1235C78.4989 67.3705 78.9312 67.5017 79.3732 67.5H91.8633C92.3698 70.4576 92.3698 73.4799 91.8633 76.4375H79.3732Z" fill="white"/>
<path d="M101.873 121.147C113.584 111.946 121.624 98.865 124.545 84.2609C127.466 69.6568 125.076 54.4897 117.804 41.4919L127.68 42.8995C127.784 42.9181 127.888 42.9256 127.993 42.9219C128.408 42.9219 128.815 42.8063 129.168 42.5882C129.521 42.37 129.806 42.0579 129.992 41.6867C130.177 41.3156 130.256 40.9001 130.219 40.4868C130.181 40.0736 130.03 39.6788 129.781 39.3469L124.82 32.7331L133.289 29.3592C133.691 29.1995 134.037 28.9267 134.287 28.5737C134.537 28.2207 134.679 27.8028 134.696 27.3706C134.716 26.9422 134.611 26.5173 134.392 26.1481C134.174 25.7789 133.852 25.4816 133.467 25.2927L126.429 21.7623L134.495 3.61922C134.681 3.1989 134.733 2.73143 134.644 2.28054C134.554 1.82965 134.328 1.41729 133.996 1.09968C133.664 0.782064 133.242 0.574656 132.787 0.505733C132.333 0.436809 131.868 0.509723 131.456 0.714533L115.347 8.75828L111.973 3.7086C111.761 3.37886 111.465 3.11175 111.115 2.93495C110.766 2.75815 110.375 2.67811 109.984 2.70313C109.593 2.72148 109.214 2.84542 108.887 3.06178C108.561 3.27814 108.299 3.57886 108.13 3.93203L104.644 10.8809L97.7174 7.41766C97.3496 7.23541 96.9388 7.15748 96.5298 7.19234C96.1208 7.22719 95.7291 7.3735 95.3974 7.61536C95.0658 7.85721 94.8067 8.18536 94.6485 8.56414C94.4902 8.94291 94.4388 9.35782 94.4999 9.76375L95.9969 18.7236C83.0443 10.7449 67.6279 7.76005 52.6333 10.3277C37.6387 12.8953 24.0937 20.8394 14.5336 32.6731C4.97355 44.5067 0.0536904 59.4188 0.694902 74.6181C1.33611 89.8174 7.49445 104.262 18.0172 115.249C14.915 116.297 12.2179 118.288 10.303 120.944C8.38801 123.6 7.351 126.788 7.33691 130.062H0.633789V134.531H134.696V130.062H112.129C111.633 127.658 110.361 125.483 108.508 123.872C106.655 122.261 104.324 121.304 101.873 121.147ZM104.644 15.8636C104.905 15.9969 105.19 16.0773 105.482 16.1C105.774 16.1227 106.067 16.0873 106.346 15.9959C106.624 15.9045 106.882 15.7589 107.103 15.5674C107.325 15.376 107.507 15.1425 107.638 14.8805L110.386 9.38391L112.732 12.8695C113.034 13.3232 113.492 13.6508 114.019 13.7907C114.545 13.9306 115.105 13.8732 115.592 13.6292L127.881 7.48469L121.491 21.8964C121.251 22.4191 121.223 23.015 121.415 23.5574C121.607 24.0999 122.003 24.546 122.519 24.8011L127.01 27.0578L120.463 29.672C120.145 29.8002 119.861 29.9998 119.632 30.2556C119.403 30.5113 119.237 30.8162 119.145 31.1467C119.046 31.4759 119.027 31.8238 119.089 32.1618C119.151 32.4998 119.293 32.8182 119.503 33.0906L122.966 37.7158L114.699 36.5316C113.872 35.325 113.023 34.1184 112.084 32.9789C111.818 32.4622 111.362 32.0695 110.811 31.8841C110.259 31.7141 109.664 31.7603 109.145 32.0134C108.626 32.2666 108.223 32.7076 108.018 33.247L106.364 37.3583L105.605 33.5375C105.526 33.121 105.328 32.7364 105.035 32.4308C104.741 32.1252 104.364 31.9119 103.951 31.817L100.242 30.9009L104.108 28.5772C104.413 28.3969 104.671 28.1471 104.861 27.8481C105.051 27.5491 105.168 27.2095 105.203 26.8567C105.234 26.5061 105.181 26.153 105.049 25.8267C104.917 25.5003 104.709 25.2101 104.443 24.9798C103.37 24.0414 102.253 23.1253 101.114 22.2763L99.6389 13.3611L104.644 15.8636ZM11.8057 130.062C11.8165 127.147 12.9641 124.351 15.0046 122.269C17.045 120.187 19.8173 118.983 22.7318 118.913C23.1806 118.905 23.6169 118.763 23.9835 118.504C24.3502 118.245 24.6303 117.881 24.7874 117.461C24.944 117.041 24.9703 116.584 24.8626 116.15C24.7549 115.715 24.5184 115.323 24.1841 115.025C20.276 111.467 16.8708 107.392 14.0624 102.915L17.8832 100.725L15.6488 96.8373L11.828 99.0494C10.169 95.8773 8.79325 92.5651 7.71676 89.1511L11.9844 88.0116L10.8225 83.6992L6.57723 84.8387C5.77242 81.3461 5.30108 77.7849 5.16957 74.2031H9.57129V69.7344H5.16957C5.29886 66.1537 5.76265 62.593 6.55488 59.0988L10.8225 60.2383L11.9844 55.9259L7.69441 54.7864C8.76077 51.3654 10.1447 48.0515 11.828 44.8881L15.6488 47.1002L17.8832 43.2123L14.0624 41.0227C15.9756 38.0007 18.1594 35.1589 20.5868 32.532L23.6925 35.6378L26.8654 32.465L23.7596 29.3592C26.3864 26.9318 29.2283 24.7481 32.2502 22.8348L34.4399 26.6556L38.3277 24.4213L36.1157 20.6005C39.279 18.9171 42.5929 17.5332 46.0139 16.4669L47.1535 20.7569L51.4658 19.595L50.3263 15.3273C53.8206 14.5351 57.3813 14.0713 60.9619 13.942V18.3438H65.4307V13.9644C69.0036 14.098 72.5564 14.5617 76.0439 15.3497L74.9268 19.595L79.2391 20.7569L80.3563 16.5116C87.1672 18.6093 93.5307 21.9501 99.125 26.3652L93.338 29.8284C92.9573 30.0548 92.6525 30.3893 92.4622 30.7893C92.272 31.1893 92.205 31.6368 92.2696 32.075C92.3343 32.5132 92.5277 32.9223 92.8253 33.2504C93.123 33.5784 93.5114 33.8105 93.9413 33.9173L101.493 35.8166L103.46 45.6031C103.555 46.0754 103.801 46.5041 104.16 46.8255C104.519 47.1468 104.972 47.3435 105.452 47.3862C105.932 47.4289 106.412 47.3154 106.823 47.0625C107.233 46.8096 107.55 46.431 107.727 45.983L110.699 38.5425C111.168 39.2128 111.593 39.9055 112.04 40.5981V40.6652H112.107C114.936 45.0537 117.16 49.8036 118.721 54.7864L114.408 55.9259L115.57 60.2383L119.86 59.0988C120.635 62.5949 121.083 66.1554 121.201 69.7344H116.821V74.2031H121.223C121.091 77.7835 120.627 81.3439 119.838 84.8387L115.57 83.6992L114.408 88.0116L118.698 89.1511C117.653 92.5801 116.284 95.902 114.609 99.0717L110.744 96.8373L108.509 100.725L112.375 102.937C110.47 105.978 108.278 108.829 105.828 111.45L102.7 108.3L99.5272 111.472L102.678 114.601C99.8913 117.176 96.8606 119.473 93.6285 121.46C93.2108 121.71 92.8877 122.091 92.7098 122.544C92.5319 122.996 92.5092 123.496 92.6454 123.963C92.7767 124.431 93.0572 124.844 93.4443 125.138C93.8314 125.432 94.304 125.592 94.7904 125.594H101.181C102.563 125.601 103.909 126.034 105.037 126.833C106.164 127.633 107.018 128.76 107.482 130.062H11.8057Z" fill="white"/>
<path d="M43.0869 123.359H47.5557V127.828H43.0869V123.359Z" fill="white"/>
<path d="M54.2588 123.359H67.665V127.828H54.2588V123.359Z" fill="white"/>
<path d="M72.1338 116.656H81.0713V121.125H72.1338V116.656Z" fill="white"/>
<path d="M83.3057 123.359H87.7744V127.828H83.3057V123.359Z" fill="white"/>
<path d="M18.5088 123.359H22.9775V127.828H18.5088V123.359Z" fill="white"/>
<path d="M29.6807 116.656H36.3838V121.125H29.6807V116.656Z" fill="white"/>
</svg>
