<svg width="144" height="143" viewBox="0 0 144 143" fill="none" xmlns="http://www.w3.org/2000/svg">
<g clip-path="url(#clip0_2078_2694)">
<path d="M81.2398 87.4758C82.5711 87.4758 83.8725 87.081 84.9794 86.3414C86.0863 85.6018 86.9491 84.5505 87.4585 83.3206C87.968 82.0907 88.1013 80.7373 87.8416 79.4316C87.5818 78.1259 86.9408 76.9265 85.9994 75.9852C85.0581 75.0438 83.8587 74.4027 82.553 74.143C81.2473 73.8833 79.8939 74.0166 78.664 74.526C77.434 75.0355 76.3828 75.8982 75.6432 77.0052C74.9036 78.1121 74.5088 79.4135 74.5088 80.7447C74.5088 82.5299 75.2179 84.242 76.4803 85.5043C77.7426 86.7666 79.4547 87.4758 81.2398 87.4758ZM81.2398 78.2311C81.7425 78.2311 82.2339 78.3801 82.6519 78.6594C83.0698 78.9387 83.3956 79.3356 83.588 79.8C83.7803 80.2645 83.8307 80.7755 83.7326 81.2685C83.6345 81.7615 83.3925 82.2144 83.037 82.5698C82.6816 82.9253 82.2287 83.1674 81.7357 83.2654C81.2427 83.3635 80.7316 83.3132 80.2672 83.1208C79.8028 82.9284 79.4059 82.6027 79.1266 82.1847C78.8473 81.7667 78.6982 81.2753 78.6982 80.7727C78.6982 80.0986 78.966 79.4521 79.4427 78.9755C79.9193 78.4988 80.5658 78.2311 81.2398 78.2311Z" fill="white"/>
<path d="M125.257 124.762C131.04 118.983 135.628 112.121 138.758 104.568C141.888 97.0158 143.499 88.9203 143.499 80.7447C143.499 72.5692 141.888 64.4737 138.758 56.921C135.628 49.3683 131.04 42.5065 125.257 36.7275C115.677 27.15 103.236 20.957 89.8192 19.0871C76.4025 17.2172 62.742 19.7725 50.9084 26.3656C50.9363 25.9746 50.9363 25.6115 50.9363 25.2205C50.9642 11.3115 39.6248 4.71627e-06 25.7158 4.71627e-06C20.4929 -0.00319026 15.3982 1.61698 11.1365 4.63633C10.9109 4.79588 10.719 4.9983 10.5716 5.23202C10.4243 5.46575 10.3244 5.7262 10.2778 5.99852C10.2311 6.27084 10.2385 6.54969 10.2996 6.81914C10.3606 7.0886 10.4742 7.34338 10.6338 7.56895C10.7933 7.79452 10.9957 7.98645 11.2294 8.13379C11.4632 8.28114 11.7236 8.381 11.9959 8.42768C12.2683 8.47437 12.5471 8.46695 12.8166 8.40587C13.086 8.34479 13.3408 8.23123 13.5664 8.07168C17.1082 5.53428 21.3589 4.17602 25.7158 4.18946C30.3974 4.19491 34.943 5.76435 38.6307 8.64855C42.3184 11.5327 44.9367 15.5663 46.0699 20.1087C47.2031 24.6511 46.7862 29.4419 44.8853 33.7203C42.9845 37.9987 39.7087 41.5193 35.5782 43.7231C31.4477 45.9269 26.6994 46.6875 22.0872 45.8841C17.475 45.0808 13.2635 42.7595 10.1214 39.2889C6.97927 35.8184 5.08678 31.3975 4.74443 26.7284C4.40209 22.0593 5.62952 17.4097 8.2318 13.518C8.4189 13.2923 8.55655 13.0299 8.63586 12.7477C8.71516 12.4655 8.73435 12.1698 8.69218 11.8797C8.65001 11.5896 8.54743 11.3116 8.39106 11.0636C8.2347 10.8157 8.02803 10.6033 7.78442 10.4402C7.54082 10.2772 7.2657 10.1671 6.97687 10.117C6.68803 10.067 6.39191 10.0781 6.10765 10.1497C5.82338 10.2213 5.55731 10.3517 5.32664 10.5326C5.09597 10.7135 4.90583 10.9408 4.76852 11.1998C2.5455 14.5185 1.14255 18.3178 0.675187 22.2848C0.20782 26.2518 0.689404 30.2731 2.08029 34.0176C3.47117 37.762 5.73156 41.1226 8.67537 43.8225C11.6192 46.5225 15.1622 48.4846 19.0127 49.5473V55.5242H18.7054C17.5595 55.5315 16.4627 55.99 15.6524 56.8003C14.8421 57.6106 14.3837 58.7074 14.3763 59.8533V64.6293C14.3837 65.7752 14.8421 66.8721 15.6524 67.6823C16.4627 68.4926 17.5595 68.9511 18.7054 68.9584H19.0127V94.6258C19.0072 97.6895 19.6894 100.715 21.0091 103.48C22.3287 106.245 24.2521 108.679 26.6375 110.602C31.2734 119.088 37.8233 126.377 45.7675 131.89C53.7116 137.404 62.8314 140.99 72.4032 142.365C81.9751 143.739 91.7355 142.864 100.91 139.808C110.085 136.753 118.421 131.601 125.257 124.762ZM23.2021 50.3293C24.8914 50.5154 26.596 50.5154 28.2853 50.3293V55.5242H23.2021V50.3293ZM18.5658 64.6293V59.8533C18.5658 59.8163 18.5805 59.7808 18.6067 59.7546C18.6329 59.7284 18.6684 59.7137 18.7054 59.7137H32.7541C32.7911 59.7137 32.8266 59.7284 32.8528 59.7546C32.879 59.7808 32.8937 59.8163 32.8937 59.8533V64.6293C32.8937 64.6663 32.879 64.7019 32.8528 64.7281C32.8266 64.7542 32.7911 64.769 32.7541 64.769H18.7054C18.6684 64.769 18.6329 64.7542 18.6067 64.7281C18.5805 64.7019 18.5658 64.6663 18.5658 64.6293ZM23.2021 94.6258V68.9584H28.2574V94.6258C28.2574 97.6332 29.4521 100.517 31.5786 102.644C33.7052 104.771 36.5894 105.965 39.5968 105.965H76.6037C77.2778 105.965 77.9242 106.233 78.4009 106.71C78.8775 107.186 79.1453 107.833 79.1453 108.507C79.1453 109.181 78.8775 109.827 78.4009 110.304C77.9242 110.781 77.2778 111.048 76.6037 111.048H39.5968C35.2461 111.041 31.0761 109.308 28.0023 106.229C24.9285 103.149 23.2021 98.9765 23.2021 94.6258ZM54.8744 65.8582L72.498 71.5838C72.7066 71.6479 72.9224 71.6854 73.1404 71.6955C73.4165 71.6993 73.6906 71.6477 73.9464 71.5437C74.2023 71.4398 74.4347 71.2856 74.63 71.0904C74.8252 70.8951 74.9794 70.6627 75.0833 70.4068C75.1873 70.151 75.2389 69.8769 75.2351 69.6008V51.0555C79.2002 50.2734 83.2798 50.2734 87.2449 51.0555V69.6008C87.2414 69.9335 87.3183 70.2621 87.4691 70.5587C87.6198 70.8553 87.8399 71.1112 88.1107 71.3045C88.4707 71.5575 88.8996 71.694 89.3396 71.6955C89.5591 71.7014 89.7775 71.6634 89.982 71.5838L107.606 65.8582C109.599 69.3775 110.863 73.2627 111.32 77.2815L93.6687 83.007C93.3522 83.103 93.0643 83.2756 92.8305 83.5094C92.5966 83.7433 92.4241 84.0312 92.3281 84.3477C92.2307 84.662 92.2078 84.9948 92.2611 85.3195C92.3144 85.6443 92.4425 85.9522 92.6353 86.219L103.528 101.217C100.798 104.193 97.5038 106.595 93.8363 108.283L82.9437 93.2852C82.7457 93.0193 82.4889 92.8028 82.1933 92.6526C81.8978 92.5024 81.5715 92.4226 81.24 92.4193C80.9073 92.4159 80.5787 92.4928 80.2821 92.6435C79.9855 92.7943 79.7296 93.0144 79.5363 93.2852L73.3918 101.804H59.4549L58.9521 101.245L69.8447 86.2469C70.0375 85.9801 70.1656 85.6722 70.2189 85.3475C70.2722 85.0227 70.2493 84.69 70.1519 84.3756C70.0559 84.0591 69.8834 83.7712 69.6495 83.5374C69.4157 83.3035 69.1278 83.131 68.8113 83.035L51.1597 77.3094C51.6174 73.2818 52.8807 69.3875 54.8744 65.8582ZM57.2763 62.2553C60.8251 57.6776 65.5997 54.2008 71.0457 52.2285V66.724L57.2763 62.2553ZM105.232 62.2553L91.4623 66.724V52.2285C96.9148 54.1884 101.693 57.6676 105.232 62.2553ZM106.265 97.8377L97.7465 86.1072L111.544 81.6385C111.37 87.4319 109.538 93.0539 106.265 97.8377ZM78.3912 102.027L81.24 98.0891L89.7586 109.82C87.5132 110.481 85.1976 110.875 82.8599 110.993C83.2076 110.114 83.3664 109.172 83.326 108.228C83.2856 107.284 83.0468 106.359 82.6253 105.513C82.2038 104.667 81.6089 103.92 80.8794 103.319C80.1499 102.719 79.3021 102.278 78.3912 102.027ZM64.7615 86.1072L56.2429 97.8377C52.9579 93.0514 51.1338 87.414 50.9922 81.6106L64.7615 86.1072ZM39.5968 115.238H54.3437C62.0079 121.268 71.4878 124.527 81.24 124.483C105.371 124.483 124.978 104.876 124.978 80.7447C124.978 56.6135 105.343 37.0068 81.24 37.0068C71.0539 37.0159 61.1887 40.571 53.3382 47.0615C52.9086 47.4171 52.6378 47.9287 52.5854 48.484C52.5331 49.0392 52.7034 49.5924 53.0589 50.0221C53.4145 50.4517 53.9262 50.7225 54.4814 50.7749C55.0366 50.8273 55.5899 50.6569 56.0195 50.3014C63.1193 44.4201 72.0486 41.2 81.2679 41.1963C103.081 41.1963 120.816 58.9317 120.816 80.7447C120.816 102.558 103.081 120.293 81.2679 120.293C74.4772 120.322 67.7963 118.58 61.8847 115.238H76.6595C77.1375 115.233 77.6141 115.186 78.0839 115.098C79.1514 115.201 80.2235 115.247 81.2959 115.238C85.5671 115.239 89.8011 114.444 93.7804 112.892L94.1435 112.752C99.4072 110.627 104.068 107.241 107.717 102.893C107.852 102.773 107.965 102.632 108.053 102.474C112.6 96.8941 115.283 90.0285 115.724 82.8438C116.165 75.6591 114.341 68.517 110.51 62.4229L110.259 62.0318C105.585 54.8095 98.3842 49.5908 90.0658 47.3967L89.7865 47.3408C84.2145 45.9257 78.3772 45.9257 72.8052 47.3408L72.5259 47.3967C64.2075 49.5908 57.007 54.8095 52.3328 62.0318C52.2237 62.1441 52.1383 62.2771 52.0814 62.4229C48.3345 68.3876 46.5052 75.3571 46.8398 82.3931C47.1744 89.429 49.6567 96.1935 53.9527 101.776H47.7802C43.4055 94.8126 41.3101 86.659 41.7857 78.4493C42.2612 70.2397 45.2841 62.3825 50.4336 55.9711C50.6384 55.7629 50.7975 55.5142 50.9005 55.2409C51.0035 54.9676 51.0483 54.6758 51.0319 54.3842C51.0154 54.0926 50.9382 53.8076 50.8052 53.5476C50.6721 53.2876 50.4862 53.0583 50.2592 52.8745C50.0323 52.6906 49.7695 52.5562 49.4875 52.4799C49.2056 52.4036 48.9108 52.3871 48.6222 52.4315C48.3335 52.4759 48.0573 52.5801 47.8113 52.7376C47.5653 52.895 47.3549 53.1022 47.1937 53.3457C41.7743 60.0927 38.4781 68.2957 37.7224 76.9166C36.9667 85.5375 38.7855 94.1889 42.9484 101.776H39.5968C38.6579 101.776 37.7281 101.591 36.8607 101.232C35.9932 100.872 35.205 100.346 34.541 99.6816C33.8771 99.0177 33.3504 98.2295 32.9911 97.362C32.6318 96.4945 32.4468 95.5647 32.4468 94.6258V68.9584H32.7541C33.9 68.9511 34.9968 68.4926 35.8071 67.6823C36.6174 66.8721 37.0758 65.7752 37.0832 64.6293V59.8533C37.0758 58.7074 36.6174 57.6106 35.8071 56.8003C34.9968 55.99 33.9 55.5315 32.7541 55.5242H32.4468V49.5473C36.6781 48.3648 40.5296 46.1033 43.6239 42.9845C46.7183 39.8657 48.9493 35.9965 50.0984 31.7561C58.7991 26.2041 68.8302 23.0887 79.1453 22.7348V25.2205C79.1453 25.7761 79.366 26.3089 79.7588 26.7017C80.1516 27.0945 80.6844 27.3152 81.24 27.3152C81.7956 27.3152 82.3284 27.0945 82.7212 26.7017C83.114 26.3089 83.3347 25.7761 83.3347 25.2205V22.7348C97.277 23.2167 110.573 28.7334 120.761 38.2637L119.029 39.9953C118.637 40.3881 118.416 40.9205 118.416 41.4756C118.416 42.0307 118.637 42.5631 119.029 42.9559C119.422 43.3481 119.954 43.5685 120.509 43.5685C121.064 43.5685 121.597 43.3481 121.989 42.9559L123.721 41.2242C133.251 51.4121 138.768 64.7077 139.25 78.65H136.764C136.209 78.65 135.676 78.8707 135.283 79.2635C134.89 79.6564 134.669 80.1892 134.669 80.7447C134.669 81.3003 134.89 81.8331 135.283 82.2259C135.676 82.6188 136.209 82.8395 136.764 82.8395H139.25C138.768 96.7817 133.251 110.077 123.721 120.265L121.989 118.534C121.592 118.164 121.067 117.962 120.524 117.972C119.982 117.981 119.464 118.201 119.08 118.585C118.696 118.969 118.477 119.486 118.467 120.029C118.457 120.572 118.659 121.097 119.029 121.494L120.761 123.226C110.573 132.756 97.277 138.273 83.3347 138.755V136.269C83.3347 135.713 83.114 135.181 82.7212 134.788C82.3284 134.395 81.7956 134.174 81.24 134.174C80.6844 134.174 80.1516 134.395 79.7588 134.788C79.366 135.181 79.1453 135.713 79.1453 136.269V138.755C65.2035 138.257 51.9074 132.754 41.6916 123.254L43.4511 121.494C43.8212 121.097 44.0226 120.572 44.013 120.029C44.0034 119.486 43.7836 118.969 43.3998 118.585C43.016 118.201 42.4982 117.981 41.9556 117.972C41.4129 117.962 40.8877 118.164 40.4906 118.534L38.731 120.293C37.0187 118.439 35.4236 116.48 33.955 114.428C35.7868 114.968 37.687 115.241 39.5968 115.238Z" fill="white"/>
<path d="M25.716 41.1963C28.8757 41.1963 31.9645 40.2594 34.5917 38.5039C37.2189 36.7485 39.2665 34.2534 40.4757 31.3342C41.6849 28.415 42.0013 25.2028 41.3848 22.1038C40.7684 19.0048 39.2469 16.1582 37.0126 13.924C34.7783 11.6897 31.9317 10.1682 28.8327 9.55173C25.7337 8.9353 22.5215 9.25167 19.6023 10.4608C16.6832 11.67 14.1881 13.7177 12.4326 16.3449C10.6772 18.9721 9.74023 22.0608 9.74023 25.2205C9.74762 29.4553 11.4331 33.5145 14.4276 36.509C17.422 39.5034 21.4812 41.1889 25.716 41.1963ZM25.716 31.9516C28.3638 31.9476 30.9343 32.8439 33.0057 34.4932C30.9319 36.138 28.3629 37.0332 25.716 37.0332C23.0692 37.0332 20.5001 36.138 18.4264 34.4932C20.4977 32.8439 23.0682 31.9476 25.716 31.9516ZM25.716 13.4342C27.8076 13.4329 29.8619 13.9881 31.668 15.043C33.4741 16.0979 34.967 17.6144 35.9934 19.4368C37.0197 21.2593 37.5427 23.3221 37.5084 25.4134C37.4742 27.5047 36.8841 29.5492 35.7986 31.3371C34.1305 29.9896 32.2135 28.9837 30.1568 28.3766L34.1508 24.3827C34.5208 23.9856 34.7222 23.4604 34.7127 22.9177C34.7031 22.375 34.4832 21.8572 34.0995 21.4734C33.7157 21.0896 33.1979 20.8698 32.6552 20.8602C32.1125 20.8507 31.5873 21.0521 31.1902 21.4221L24.8223 27.7901C21.4646 27.9863 18.2521 29.2264 15.6334 31.3371C14.5479 29.5492 13.9578 27.5047 13.9236 25.4134C13.8894 23.3221 14.4123 21.2593 15.4387 19.4368C16.465 17.6144 17.9579 16.0979 19.764 15.043C21.5701 13.9881 23.6244 13.4329 25.716 13.4342Z" fill="white"/>
</g>
<defs>
<clipPath id="clip0_2078_2694">
<rect width="143" height="143" fill="white" transform="translate(0.495117)"/>
</clipPath>
</defs>
</svg>
