<svg width="17" height="25" viewBox="0 0 17 25" fill="none" xmlns="http://www.w3.org/2000/svg">
<path d="M11.3793 11.0983C11.3793 11.0983 11.5846 10.8981 11.9951 10.4978C12.4056 10.0974 12.6108 9.33135 12.6108 8.19963C12.6108 7.06791 12.2003 6.10168 11.3793 5.30093C10.5583 4.50018 9.5676 4.09981 8.40723 4.09981C7.24685 4.09981 6.25616 4.50018 5.43514 5.30093C4.61412 6.10168 4.20361 7.06791 4.20361 8.19963C4.20361 9.33135 4.61412 10.2976 5.43514 11.0983C6.25616 11.8991 7.24685 12.2994 8.40723 12.2994C9.5676 12.2994 10.5583 11.8991 11.3793 11.0983ZM16.8145 8.19963C16.8145 9.36338 16.6338 10.3189 16.2726 11.0663L10.2956 23.4618C10.1204 23.8142 9.86043 24.0918 9.5156 24.2946C9.17077 24.4975 8.80132 24.5989 8.40723 24.5989C8.01314 24.5989 7.64368 24.4975 7.29885 24.2946C6.95402 24.0918 6.69951 23.8142 6.53531 23.4618L0.541872 11.0663C0.180624 10.3189 0 9.36338 0 8.19963C0 5.93619 0.821018 4.00372 2.46305 2.40223C4.10509 0.800737 6.08648 -9.97788e-06 8.40723 -9.97788e-06C10.728 -9.97788e-06 12.7094 0.800737 14.3514 2.40223C15.9934 4.00372 16.8145 5.93619 16.8145 8.19963Z" fill="black"/>
</svg>
