<svg width="15" height="12" viewBox="0 0 15 12" fill="none" xmlns="http://www.w3.org/2000/svg">
<path d="M14.1761 4.44061V10.5249C14.1761 10.8621 14.0561 11.1507 13.816 11.3908C13.5759 11.6309 13.2872 11.751 12.9501 11.751H1.67039C1.33322 11.751 1.04459 11.6309 0.804489 11.3908C0.564387 11.1507 0.444336 10.8621 0.444336 10.5249V4.44061C0.669112 4.69093 0.927095 4.91315 1.21828 5.10728C3.06758 6.36398 4.33706 7.24521 5.02671 7.75096C5.3179 7.96552 5.55417 8.13282 5.73552 8.25287C5.91688 8.37292 6.15826 8.49553 6.45966 8.62069C6.76107 8.74585 7.04204 8.80843 7.30257 8.80843H7.31024H7.3179C7.57844 8.80843 7.85941 8.74585 8.16081 8.62069C8.46222 8.49553 8.70359 8.37292 8.88495 8.25287C9.0663 8.13282 9.30257 7.96552 9.59376 7.75096C10.4622 7.12261 11.7342 6.24138 13.4099 5.10728C13.701 4.90805 13.9565 4.68582 14.1761 4.44061ZM14.1761 2.18774C14.1761 2.59132 14.051 2.97701 13.8007 3.34483C13.5503 3.71264 13.2387 4.02682 12.8658 4.28736C10.945 5.62069 9.74957 6.45083 9.27958 6.77778C9.2285 6.81354 9.11994 6.89144 8.95391 7.01149C8.78789 7.13155 8.64996 7.22861 8.54012 7.30268C8.43029 7.37676 8.29746 7.45977 8.14165 7.55172C7.98584 7.64368 7.83897 7.71264 7.70104 7.75862C7.56311 7.8046 7.4354 7.82759 7.3179 7.82759H7.31024H7.30257C7.18508 7.82759 7.05736 7.8046 6.91943 7.75862C6.7815 7.71264 6.63463 7.64368 6.47882 7.55172C6.32301 7.45977 6.19019 7.37676 6.08035 7.30268C5.97052 7.22861 5.83259 7.13155 5.66656 7.01149C5.50053 6.89144 5.39197 6.81354 5.34089 6.77778C4.87601 6.45083 4.20679 5.98467 3.33322 5.37931C2.45966 4.77395 1.93603 4.40996 1.76234 4.28736C1.44561 4.0728 1.14676 3.77778 0.865792 3.4023C0.584821 3.02682 0.444336 2.67816 0.444336 2.35632C0.444336 1.95785 0.550338 1.6258 0.762344 1.36015C0.974349 1.09451 1.27703 0.961686 1.67039 0.961686H12.9501C13.2821 0.961686 13.5695 1.08174 13.8122 1.32184C14.0548 1.56194 14.1761 1.85058 14.1761 2.18774Z" fill="white"/>
</svg>
