<svg width="144" height="143" viewBox="0 0 144 143" fill="none" xmlns="http://www.w3.org/2000/svg">
<g clip-path="url(#clip0_2078_2707)">
<path d="M108.594 127.564L105.291 122.611L101.325 125.255L104.498 130.014C95.5222 134.94 85.3748 137.778 74.7082 138.15V133.467H69.9416V138.173C59.1865 137.793 49.0713 134.867 40.1865 129.963L43.3248 125.255L39.3586 122.611L36.0991 127.501C28.1996 122.373 21.4521 115.625 16.3243 107.726L21.2137 104.466L18.5697 100.5L13.8623 103.638C8.95862 94.7536 6.03248 84.6384 5.65234 73.8833H12.7419V69.1167H5.65234C6.03248 58.3616 8.95862 48.2464 13.8626 39.3616L18.57 42.4999L21.214 38.5337L16.3246 35.2742C21.4523 27.3747 28.1999 20.6272 36.0994 15.4994L39.3589 20.3888L43.3251 17.7448L40.1868 13.0374C49.0716 8.13372 59.1868 5.20729 69.9419 4.82714V9.53333H74.7085V4.84949C85.3748 5.22159 95.5225 8.05984 104.498 12.9862L101.326 17.7445L105.292 20.3885L108.594 15.4354C118.47 21.8266 126.672 30.8424 132.157 41.9094L136.428 39.7936C124.264 15.2486 99.7022 0 72.3252 0C32.9001 0 0.825195 32.0749 0.825195 71.5C0.825195 110.925 32.9001 143 72.3252 143C99.7022 143 124.264 127.751 136.427 103.206L132.156 101.09C126.672 112.158 118.47 121.173 108.594 127.564Z" fill="white"/>
<path d="M141.442 54.8166H120.271C114.305 44.4885 103.37 38.1333 91.3917 38.1333C78.9257 38.1333 67.5896 45.0167 61.8083 56.098C61.4231 56.8368 61.4511 57.7225 61.8839 58.436C62.3156 59.1483 63.0884 59.5836 63.9217 59.5836H88.0217L99.9383 71.5003L88.0217 83.4169H63.9217C63.0884 83.4169 62.3156 83.8522 61.8839 84.5645C61.4511 85.278 61.4231 86.1634 61.8083 86.9026C67.5899 97.9833 78.926 104.867 91.392 104.867C103.37 104.867 114.305 98.5115 120.271 88.1833H141.442C142.758 88.1833 143.825 87.1162 143.825 85.8V57.2C143.825 55.8838 142.758 54.8166 141.442 54.8166ZM139.059 83.4166H118.862C117.974 83.4166 117.159 83.91 116.749 84.698C111.792 94.1985 102.076 100.1 91.392 100.1C82.0833 100.1 73.5101 95.6208 68.1777 88.1833H89.0087C89.6405 88.1833 90.2468 87.9319 90.6937 87.485L104.994 73.185C105.925 72.254 105.925 70.7456 104.994 69.8147L90.6937 55.5147C90.2468 55.0678 89.6405 54.8163 89.0087 54.8163H68.1777C73.5098 47.3788 82.0833 42.8997 91.392 42.8997C102.076 42.8997 111.792 48.8011 116.749 58.3017C117.159 59.0897 117.974 59.583 118.862 59.583H139.059V83.4166Z" fill="white"/>
<path d="M72.3248 64.35C68.3822 64.35 65.1748 67.5573 65.1748 71.5C65.1748 75.4426 68.3822 78.65 72.3248 78.65C76.2674 78.65 79.4748 75.4426 79.4748 71.5C79.4748 67.5573 76.2674 64.35 72.3248 64.35ZM72.3248 73.8833C71.011 73.8833 69.9415 72.8138 69.9415 71.5C69.9415 70.1862 71.011 69.1166 72.3248 69.1166C73.6386 69.1166 74.7081 70.1862 74.7081 71.5C74.7081 72.8138 73.6386 73.8833 72.3248 73.8833Z" fill="white"/>
<path d="M72.3254 116.783C70.7152 116.783 69.1261 116.692 67.5587 116.527V99.1618C67.5587 98.075 66.8232 97.1253 65.77 96.8542C63.2774 96.2118 60.8997 95.2064 58.7014 93.8646C57.7644 93.292 56.5543 93.4362 55.7746 94.2137L43.5496 106.439C41.3039 104.586 39.2394 102.521 37.3863 100.275L49.6113 88.0504C50.3898 87.272 50.5343 86.0627 49.9605 85.1237C48.6187 82.9254 47.6132 80.548 46.9709 78.055C46.6998 77.0019 45.75 76.2663 44.6632 76.2663H27.2983C27.1335 74.699 27.0421 73.1099 27.0421 71.4997C27.0421 69.8894 27.1335 68.3003 27.2983 66.733H44.6635C45.7503 66.733 46.7001 65.9974 46.9712 64.9443C47.6135 62.4504 48.619 60.0719 49.9608 57.8768C50.5346 56.9366 50.3901 55.7274 49.6116 54.9489L37.3866 42.7239C39.2397 40.4782 41.3039 38.4136 43.5499 36.5606L55.7749 48.7856C56.2346 49.2453 56.8445 49.4839 57.4611 49.4839C57.8884 49.4839 58.3176 49.3698 58.7029 49.1348C60.8976 47.7929 63.2765 46.7875 65.7703 46.1452C66.8235 45.8741 67.559 44.9243 67.559 43.8375V26.4728C69.1264 26.3081 70.7155 26.2166 72.3257 26.2166C82.215 26.2166 91.6098 29.3471 99.4942 35.2694L102.357 31.457C93.6404 24.9108 83.2554 21.45 72.3254 21.45C44.7273 21.45 22.2754 43.9018 22.2754 71.5C22.2754 99.0981 44.7273 121.55 72.3254 121.55C83.2554 121.55 93.6404 118.089 102.357 111.543L99.4942 107.73C91.6095 113.653 82.2147 116.783 72.3254 116.783ZM62.7921 27.2462V42.0482C61.0895 42.5988 59.4405 43.2947 57.8612 44.1312L47.4383 33.7092C52.042 30.6672 57.2261 28.4444 62.7921 27.2462ZM34.5347 46.6129L44.9567 57.0358C44.1198 58.6151 43.4239 60.264 42.8736 61.9666H28.0717C29.2699 56.4006 31.4926 51.2166 34.5347 46.6129ZM34.5347 96.387C31.4929 91.7833 29.2699 86.5993 28.0717 81.0333H42.8736C43.4242 82.7347 44.1201 84.3837 44.9567 85.9641L34.5347 96.387ZM62.7921 115.754C57.2261 114.555 52.042 112.333 47.4383 109.291L57.8612 98.8687C59.4417 99.7055 61.0907 100.401 62.7921 100.952V115.754Z" fill="white"/>
</g>
<defs>
<clipPath id="clip0_2078_2707">
<rect width="143" height="143" fill="white" transform="translate(0.825195)"/>
</clipPath>
</defs>
</svg>
